<svg width="20" height="20" viewBox="0 0 20 20" fill="none" xmlns="http://www.w3.org/2000/svg">
<path fill-rule="evenodd" clip-rule="evenodd" d="M2.70834 18.3335C2.70834 18.1677 2.77418 18.0088 2.89139 17.8916C3.0086 17.7743 3.16758 17.7085 3.33334 17.7085H16.6667C16.8324 17.7085 16.9914 17.7743 17.1086 17.8916C17.2258 18.0088 17.2917 18.1677 17.2917 18.3335C17.2917 18.4993 17.2258 18.6582 17.1086 18.7754C16.9914 18.8926 16.8324 18.9585 16.6667 18.9585H3.33334C3.16758 18.9585 3.0086 18.8926 2.89139 18.7754C2.77418 18.6582 2.70834 18.4993 2.70834 18.3335Z" fill="#C7FF10"/>
<path d="M9.6 12.4408L14.5308 7.50999C13.7009 7.16431 12.9473 6.65826 12.3133 6.02082C11.6755 5.38665 11.1692 4.63279 10.8233 3.80249L5.89167 8.73332C5.50667 9.11832 5.31417 9.30999 5.14917 9.52249C4.95371 9.77256 4.78632 10.0434 4.65 10.33C4.53417 10.5725 4.44833 10.8308 4.27583 11.3467L3.36917 14.0692C3.32756 14.1937 3.32148 14.3274 3.35161 14.4552C3.38173 14.583 3.44688 14.6999 3.53973 14.7928C3.63259 14.8856 3.74948 14.9508 3.87729 14.9809C4.00511 15.011 4.13879 15.0049 4.26333 14.9633L6.985 14.0567C7.50167 13.8842 7.76 13.7983 8.0025 13.6817C8.29028 13.545 8.55945 13.3789 8.81 13.1833C9.0225 13.0175 9.21417 12.825 9.59917 12.4408M15.8992 6.14166C16.1426 5.89817 16.3357 5.60911 16.4674 5.29099C16.5992 4.97287 16.6669 4.63193 16.6669 4.28761C16.6669 3.9433 16.599 3.60237 16.4672 3.28428C16.3354 2.96619 16.1422 2.67718 15.8988 2.43374C15.6553 2.1903 15.3662 1.99721 15.0481 1.86548C14.73 1.73376 14.389 1.66598 14.0447 1.66602C13.7004 1.66605 13.3595 1.73391 13.0414 1.86571C12.7233 1.99751 12.4343 2.19067 12.1908 2.43416L11.5992 3.02583L11.625 3.10083C11.8417 3.72499 12.2508 4.54416 13.02 5.31333C13.6616 5.95867 14.4452 6.44496 15.3083 6.73333L15.8992 6.14166Z" fill="#C7FF10"/>
</svg>
