<svg width="19" height="16" viewBox="0 0 19 16" fill="none" xmlns="http://www.w3.org/2000/svg">
<path d="M2.03704 3.57527C2.03704 1.59929 3.63166 0 5.60185 0C7.57205 0 9.16667 1.59929 9.16667 3.57527C9.16667 5.55124 7.57205 7.15054 5.60185 7.15054C3.63166 7.15054 2.03704 5.55124 2.03704 3.57527ZM0 14.3011C0 11.1983 2.5081 8.6828 5.60185 8.6828C8.6956 8.6828 11.2037 11.1983 11.2037 14.3011V14.4926C11.2037 15.2332 10.6053 15.8333 9.8669 15.8333H1.33681C0.59838 15.8333 0 15.2332 0 14.4926V14.3011ZM13.75 1.53226C15.4369 1.53226 16.8056 2.90491 16.8056 4.59677C16.8056 6.28864 15.4369 7.66129 13.75 7.66129C12.0631 7.66129 10.6944 6.28864 10.6944 4.59677C10.6944 2.90491 12.0631 1.53226 13.75 1.53226ZM13.75 9.19355C16.2804 9.19355 18.3333 11.2525 18.3333 13.7903V14.5054C18.3333 15.2396 17.7413 15.8333 17.0093 15.8333H12.4005C12.6105 15.4343 12.7315 14.9778 12.7315 14.4926V14.3011C12.7315 12.6571 12.1777 11.144 11.2514 9.93733C11.9708 9.46808 12.8302 9.19355 13.75 9.19355Z" fill="#141414"/>
</svg>
