<svg width="14" height="17" viewBox="0 0 14 17" fill="none" xmlns="http://www.w3.org/2000/svg">
<path d="M5.2585 2.82568L5.38937 4.04475C5.68611 6.80884 7.7781 9.04194 10.517 9.51821C7.7781 9.99449 5.68611 12.2276 5.38937 14.9917L5.2585 16.2107L5.12762 14.9917C4.83088 12.2276 2.73889 9.99449 1.52588e-05 9.51821C2.73889 9.04194 4.83088 6.80884 5.12762 4.04475L5.2585 2.82568Z" fill="#C7FF10"/>
<path d="M11.1544 0L11.2284 0.758943C11.3435 1.93813 12.2216 2.90062 13.3852 3.12322C12.2216 3.34582 11.3435 4.30831 11.2284 5.48749L11.1544 6.24644L11.0803 5.48749C10.9652 4.30831 10.0872 3.34581 8.92351 3.12322C10.0872 2.90062 10.9652 1.93813 11.0803 0.758945L11.1544 0Z" fill="#C7FF10"/>
</svg>
