<svg width="7" height="9" viewBox="0 0 7 9" fill="none" xmlns="http://www.w3.org/2000/svg">
<path d="M2.74994 1.47754L2.81839 2.11512C2.97356 3.56061 4.06757 4.72842 5.49987 4.97749C4.06757 5.22657 2.97356 6.39437 2.81839 7.83986L2.74994 8.47745L2.68149 7.83986C2.52632 6.39438 1.43231 5.22657 7.62939e-06 4.97749C1.43231 4.72842 2.52632 3.56061 2.68149 2.11512L2.74994 1.47754Z" fill="#FBF8EF"/>
<path d="M5.83309 0L5.87183 0.396924C5.93201 1.01358 6.39117 1.51692 6.99973 1.63333C6.39117 1.74974 5.93201 2.25308 5.87183 2.86974L5.83309 3.26666L5.79435 2.86974C5.73417 2.25308 5.275 1.74974 4.66645 1.63333C5.275 1.51692 5.73417 1.01358 5.79435 0.396924L5.83309 0Z" fill="#FBF8EF"/>
</svg>
