<svg width="27" height="26" viewBox="0 0 27 26" fill="none" xmlns="http://www.w3.org/2000/svg">
<path d="M13.5 0.25C20.8143 0.25 26.75 5.9436 26.75 13C26.75 20.0564 20.8143 25.75 13.5 25.75C6.18571 25.75 0.25 20.0564 0.25 13C0.25 5.9436 6.18571 0.25 13.5 0.25ZM13.5 2.3125C7.35725 2.3125 2.375 7.11695 2.375 13C2.375 18.8838 7.35799 23.7119 13.5 23.7119C19.642 23.7119 24.625 18.8838 24.625 13C24.625 7.11695 19.6427 2.3125 13.5 2.3125ZM19.1875 11.9688C19.7733 11.9688 20.25 12.4133 20.25 13C20.25 13.5867 19.7733 14.0312 19.1875 14.0312H7.8125C7.22673 14.0312 6.75 13.5867 6.75 13C6.75 12.4133 7.22673 11.9688 7.8125 11.9688H19.1875Z" fill="#FBF8EF" stroke="#FBF8EF" stroke-width="0.5"/>
</svg>
