<svg width="26" height="26" viewBox="0 0 26 26" fill="none" xmlns="http://www.w3.org/2000/svg">
<path d="M13 0.25C20.042 0.25 25.75 5.95842 25.75 13C25.75 20.042 20.042 25.75 13 25.75C5.95842 25.75 0.25 20.042 0.25 13C0.25 5.95841 5.95841 0.25 13 0.25ZM13 2.3125C7.10721 2.3125 2.3125 7.10721 2.3125 13C2.31253 18.8935 7.10796 23.7119 13 23.7119C18.892 23.7119 23.6875 18.8935 23.6875 13C23.6875 7.10724 18.8928 2.3125 13 2.3125ZM13 6.5C13.5693 6.5 14.0312 6.96193 14.0312 7.53125V11.9688H18.4688C19.0381 11.9688 19.5 12.4307 19.5 13C19.5 13.5693 19.0381 14.0312 18.4688 14.0312H14.0312V18.4688C14.0312 19.0381 13.5693 19.5 13 19.5C12.4307 19.5 11.9688 19.0381 11.9688 18.4688V14.0312H7.53125C6.96193 14.0312 6.5 13.5693 6.5 13C6.5 12.4307 6.96193 11.9688 7.53125 11.9688H11.9688V7.53125C11.9688 6.96193 12.4307 6.5 13 6.5Z" fill="#FBF8EF" stroke="#FBF8EF" stroke-width="0.5"/>
</svg>
