<svg width="16" height="19" viewBox="0 0 16 19" fill="none" xmlns="http://www.w3.org/2000/svg">
<path d="M7.91667 0L15.8333 4.58333V13.75L7.91667 18.3333L0 13.75V4.58333L7.91667 0ZM7.91667 11.6667C8.57971 11.6667 9.21559 11.4033 9.68443 10.9344C10.1533 10.4656 10.4167 9.82971 10.4167 9.16667C10.4167 8.50363 10.1533 7.86774 9.68443 7.3989C9.21559 6.93006 8.57971 6.66667 7.91667 6.66667C7.25363 6.66667 6.61774 6.93006 6.1489 7.3989C5.68006 7.86774 5.41667 8.50363 5.41667 9.16667C5.41667 9.82971 5.68006 10.4656 6.1489 10.9344C6.61774 11.4033 7.25363 11.6667 7.91667 11.6667Z" fill="#141414"/>
</svg>
