<svg width="48" height="48" viewBox="0 0 48 48" fill="none" xmlns="http://www.w3.org/2000/svg">
<path d="M18.734 4.5C16.55 4.5 14.818 4.5 13.424 4.614C11.996 4.73 10.79 4.974 9.688 5.534C7.89997 6.44535 6.44649 7.89953 5.536 9.688C4.974 10.788 4.73 11.996 4.614 13.424C4.5 14.818 4.5 16.55 4.5 18.734V29.266C4.5 31.45 4.5 33.182 4.614 34.576C4.73 36.004 4.974 37.21 5.534 38.314C6.44569 40.1013 7.89984 41.554 9.688 42.464C10.788 43.026 11.996 43.27 13.424 43.386C14.818 43.5 16.55 43.5 18.734 43.5H29.266C31.45 43.5 33.182 43.5 34.576 43.386C36.004 43.27 37.21 43.026 38.314 42.466C40.101 41.5548 41.5537 40.1014 42.464 38.314C43.026 37.21 43.27 36.004 43.386 34.576C43.5 33.182 43.5 31.45 43.5 29.266V18.734C43.5 16.55 43.5 14.818 43.386 13.424C43.27 11.996 43.026 10.79 42.466 9.688C41.5552 7.90028 40.1017 6.44683 38.314 5.536C37.21 4.974 36.004 4.73 34.576 4.614C33.182 4.5 31.45 4.5 29.266 4.5H18.734Z" fill="black"/>
</svg>
