<svg width="16" height="22" viewBox="0 0 16 22" fill="none" xmlns="http://www.w3.org/2000/svg">
<path d="M5 21H11M5 1H11M1 6C1 5.46957 1.21071 4.96086 1.58579 4.58579C1.96086 4.21071 2.46957 4 3 4H13C13.5304 4 14.0391 4.21071 14.4142 4.58579C14.7893 4.96086 15 5.46957 15 6V16C15 16.5304 14.7893 17.0391 14.4142 17.4142C14.0391 17.7893 13.5304 18 13 18H3C2.46957 18 1.96086 17.7893 1.58579 17.4142C1.21071 17.0391 1 16.5304 1 16V6Z" stroke="#FBF8EF" stroke-width="2" stroke-linecap="round" stroke-linejoin="round"/>
</svg>
