<svg width="22" height="25" viewBox="0 0 22 25" fill="none" xmlns="http://www.w3.org/2000/svg">
<path d="M2.75 24.0625C1.99375 24.0625 1.34658 23.7935 0.808499 23.2554C0.270416 22.7173 0.000916667 22.0697 0 21.3125V8.9375C0 8.50209 0.0976241 8.08958 0.292874 7.7C0.488124 7.31042 0.757167 6.98958 1.1 6.7375L9.35 0.55C9.83125 0.183338 10.3813 0 11 0C11.6187 0 12.1688 0.183338 12.65 0.55L20.9 6.7375C21.2438 6.98958 21.5133 7.31042 21.7085 7.7C21.9038 8.08958 22.0009 8.50209 22 8.9375V21.3125C22 22.0687 21.7305 22.7164 21.1915 23.2554C20.6525 23.7944 20.0053 24.0634 19.25 24.0625H2.75Z" fill="#141414"/>
</svg>
