<svg width="19" height="19" viewBox="0 0 19 19" fill="none" xmlns="http://www.w3.org/2000/svg">
<path d="M2.80387 5.16748H1.21887C0.545707 5.16748 9.53674e-07 5.71319 9.53674e-07 6.38635V16.8973C9.53674e-07 17.5705 0.545707 18.1162 1.21887 18.1162H2.80387C3.47704 18.1162 4.02274 17.5705 4.02274 16.8973V6.38635C4.02274 5.71319 3.47704 5.16748 2.80387 5.16748Z" fill="#141414"/>
<path d="M10.1599 0H8.57494C7.90178 0 7.35608 0.545706 7.35608 1.21887V16.8971C7.35608 17.5702 7.90178 18.1159 8.57494 18.1159H10.1599C10.8331 18.1159 11.3788 17.5702 11.3788 16.8971V1.21887C11.3788 0.545706 10.8331 0 10.1599 0Z" fill="#141414"/>
<path d="M17.516 10.1313H15.931C15.2579 10.1313 14.7122 10.6771 14.7122 11.3502V16.8972C14.7122 17.5704 15.2579 18.1161 15.931 18.1161H17.516C18.1892 18.1161 18.7349 17.5704 18.7349 16.8972V11.3502C18.7349 10.6771 18.1892 10.1313 17.516 10.1313Z" fill="#141414"/>
</svg>
