<svg width="28" height="32" viewBox="0 0 28 32" fill="none" xmlns="http://www.w3.org/2000/svg">
<path d="M16.7158 15.2941L11.7158 10.2941C11.6226 10.2009 11.5119 10.1269 11.39 10.0764C11.2682 10.026 11.1377 10 11.0058 10C10.7395 10 10.4841 10.1058 10.2958 10.2941C10.2026 10.3873 10.1286 10.498 10.0781 10.6198C10.0277 10.7417 10.0017 10.8722 10.0017 11.0041C10.0017 11.2704 10.1075 11.5258 10.2958 11.7141L14.5958 16.0041L10.2958 20.2941C10.2021 20.387 10.1277 20.4976 10.0769 20.6195C10.0261 20.7414 10 20.8721 10 21.0041C10 21.1361 10.0261 21.2668 10.0769 21.3886C10.1277 21.5105 10.2021 21.6211 10.2958 21.7141C10.3888 21.8078 10.4994 21.8822 10.6212 21.933C10.7431 21.9837 10.8738 22.0099 11.0058 22.0099C11.1378 22.0099 11.2685 21.9837 11.3904 21.933C11.5122 21.8822 11.6228 21.8078 11.7158 21.7141L16.7158 16.7141C16.8095 16.6211 16.8839 16.5105 16.9347 16.3886C16.9855 16.2668 17.0116 16.1361 17.0116 16.0041C17.0116 15.8721 16.9855 15.7414 16.9347 15.6195C16.8839 15.4976 16.8095 15.387 16.7158 15.2941Z" fill="#FBF8EF"/>
</svg>
