<svg width="12" height="13" viewBox="0 0 12 13" fill="none" xmlns="http://www.w3.org/2000/svg">
<path d="M10.2893 10.289V4.92085C10.2893 4.3403 10.175 3.76543 9.95282 3.22907C9.73064 2.6927 9.40499 2.20535 8.99447 1.79484C8.58394 1.38432 8.09657 1.05869 7.56019 0.836517C7.02381 0.614349 6.44892 0.5 5.86835 0.5C5.28778 0.5 4.71289 0.614349 4.17651 0.836517C3.64013 1.05869 3.15276 1.38432 2.74224 1.79484C2.33171 2.20535 2.00606 2.6927 1.78388 3.22907C1.56171 3.76543 1.44736 4.3403 1.44736 4.92085V10.289M11.2367 10.289H0.5" stroke="#FBF8EF" stroke-linecap="round" stroke-linejoin="round"/>
<path d="M6.81567 11.5527C6.81567 11.804 6.71586 12.0449 6.5382 12.2226C6.36053 12.4003 6.11957 12.5001 5.86832 12.5001M5.86832 12.5001C5.61706 12.5001 5.3761 12.4003 5.19843 12.2226C5.02077 12.0449 4.92096 11.804 4.92096 11.5527M5.86832 12.5001V11.5527" stroke="#FBF8EF" stroke-linejoin="round"/>
</svg>
