<svg width="15" height="15" viewBox="0 0 15 15" fill="none" xmlns="http://www.w3.org/2000/svg">
<path d="M7.125 13.75C7.99516 13.7511 8.85696 13.5802 9.66089 13.2472C10.4648 12.9142 11.195 12.4256 11.8095 11.8095C12.4256 11.195 12.9142 10.4648 13.2472 9.66089C13.5802 8.85696 13.7511 7.99516 13.75 7.125C13.7511 6.25484 13.5802 5.39304 13.2472 4.58911C12.9142 3.78519 12.4256 3.05499 11.8095 2.44047C11.195 1.82439 10.4648 1.33582 9.66089 1.00281C8.85696 0.669807 7.99516 0.498932 7.125 0.500005C6.25484 0.498932 5.39304 0.669807 4.58911 1.00281C3.78519 1.33582 3.05499 1.82439 2.44047 2.44047C1.82439 3.05499 1.33582 3.78519 1.00281 4.58911C0.669807 5.39304 0.498932 6.25484 0.500005 7.125C0.498932 7.99516 0.669807 8.85696 1.00281 9.66089C1.33582 10.4648 1.82439 11.195 2.44047 11.8095C3.05499 12.4256 3.78519 12.9142 4.58911 13.2472C5.39304 13.5802 6.25484 13.7511 7.125 13.75Z" stroke="#FBF8EF" stroke-linejoin="round"/>
<path d="M7.12501 8.65693V7.33193C7.5181 7.33193 7.90236 7.21537 8.22921 6.99698C8.55605 6.77859 8.81079 6.46818 8.96122 6.10502C9.11165 5.74185 9.15101 5.34223 9.07432 4.95669C8.99763 4.57115 8.80834 4.21702 8.53038 3.93906C8.25243 3.6611 7.89829 3.47181 7.51275 3.39512C7.12722 3.31844 6.7276 3.35779 6.36443 3.50822C6.00126 3.65865 5.69086 3.9134 5.47247 4.24024C5.25408 4.56708 5.13751 4.95134 5.13751 5.34443" stroke="#FBF8EF" stroke-linecap="round" stroke-linejoin="round"/>
<path d="M7.125 10.4819C7.21202 10.4819 7.29589 10.5161 7.35742 10.5776C7.41896 10.6392 7.45312 10.723 7.45312 10.8101C7.45312 10.8971 7.41896 10.9809 7.35742 11.0425C7.29589 11.104 7.21202 11.1382 7.125 11.1382C7.03798 11.1382 6.95411 11.104 6.89258 11.0425C6.83104 10.9809 6.79688 10.8971 6.79688 10.8101C6.79688 10.723 6.83104 10.6392 6.89258 10.5776C6.95411 10.5161 7.03798 10.4819 7.125 10.4819Z" fill="#FBF8EF" stroke="#FBF8EF"/>
</svg>
