<svg width="48" height="48" viewBox="0 0 48 48" fill="none" xmlns="http://www.w3.org/2000/svg">
<path d="M28.88 11.5601L8.39597 32.0401C7.78693 32.6489 7.39062 33.438 7.26597 34.2901L6.15997 41.8381L13.71 40.7321C14.5623 40.6069 15.3514 40.2099 15.96 39.6001L36.44 19.1201M28.88 11.5601L33.338 7.10011C33.6351 6.80289 33.9879 6.56711 34.3762 6.40625C34.7645 6.24539 35.1807 6.1626 35.601 6.1626C36.0213 6.1626 36.4374 6.24539 36.8257 6.40625C37.214 6.56711 37.5668 6.80289 37.864 7.10011L40.9 10.1361C41.1972 10.4333 41.433 10.7861 41.5938 11.1744C41.7547 11.5626 41.8375 11.9788 41.8375 12.3991C41.8375 12.8194 41.7547 13.2356 41.5938 13.6239C41.433 14.0122 41.1972 14.365 40.9 14.6621L36.44 19.1201M28.88 11.5601L36.44 19.1201" stroke="#FBF8EF" stroke-width="3" stroke-linecap="round" stroke-linejoin="round"/>
</svg>
