<svg width="11" height="14" viewBox="0 0 11 14" fill="none" xmlns="http://www.w3.org/2000/svg">
<path d="M2.64286 5.83937V3.55107C2.64286 2.74187 2.94388 1.96582 3.4797 1.39364C4.01551 0.821451 4.74224 0.5 5.5 0.5C6.25776 0.5 6.98449 0.821451 7.5203 1.39364C8.05612 1.96582 8.35714 2.74187 8.35714 3.55107V5.83937M2.64286 5.83937H8.35714M2.64286 5.83937C2.07454 5.83937 1.52949 6.08045 1.12763 6.50959C0.725764 6.93873 0.5 7.52077 0.5 8.12767V10.416C0.5 11.0229 0.725764 11.6049 1.12763 12.034C1.52949 12.4632 2.07454 12.7043 2.64286 12.7043H8.35714C8.92546 12.7043 9.47051 12.4632 9.87237 12.034C10.2742 11.6049 10.5 11.0229 10.5 10.416V8.12767C10.5 7.52077 10.2742 6.93873 9.87237 6.50959C9.47051 6.08045 8.92546 5.83937 8.35714 5.83937" stroke="#FBF8EF" stroke-linecap="round" stroke-linejoin="round"/>
</svg>
