<svg width="35" height="35" viewBox="0 0 35 35" fill="none" xmlns="http://www.w3.org/2000/svg">
<path d="M7 20.5627C7 19.6235 7.10967 18.6984 7.329 17.7872C7.54834 16.8772 7.88959 16.0069 8.35275 15.1762C8.42625 15.0479 8.49917 14.9154 8.5715 14.7789C8.645 14.6424 8.73192 14.5153 8.83225 14.3974C8.91952 14.2835 9.02615 14.1857 9.14725 14.1087C9.27739 14.0385 9.42291 14.0018 9.57075 14.0018C9.71859 14.0018 9.86412 14.0385 9.99425 14.1087C10.126 14.1766 10.2354 14.2811 10.3093 14.4097L12.1275 17.3777C12.2103 17.5142 12.3194 17.6192 12.4548 17.6927C12.5983 17.769 12.7577 17.811 12.9203 17.8152C13.0598 17.8214 13.1988 17.7933 13.325 17.7336C13.4513 17.6738 13.5611 17.5841 13.6448 17.4722C13.7644 17.3146 13.8474 17.1323 13.8877 16.9385C13.928 16.7447 13.9245 16.5444 13.8775 16.3522C13.8478 16.2387 13.8068 16.1285 13.755 16.0232C13.3947 15.2574 13.0883 14.4674 12.838 13.6589C12.5964 12.8374 12.4767 11.9848 12.4828 11.1284C12.4828 9.98045 12.6741 8.97361 13.0568 8.10795C13.4394 7.24111 13.9726 6.49795 14.6563 5.87845C15.3388 5.26011 16.1362 4.75903 17.0485 4.3752C17.9896 3.98249 18.9707 3.69378 19.9745 3.5142C20.0998 3.49152 20.2286 3.49703 20.3515 3.53033C20.4744 3.56363 20.5883 3.62387 20.685 3.7067C20.895 3.88753 21 4.11036 21 4.3752C21 5.74253 21.2322 7.0457 21.6965 8.2847C22.1675 9.53432 22.8171 10.7091 23.625 11.7724L25.1423 13.7534C25.6533 14.4184 26.1228 15.1114 26.551 15.8324C26.9792 16.5523 27.3257 17.2995 27.5905 18.0742C27.8542 18.85 27.9907 19.6795 28 20.5627C28 21.538 27.8816 22.4859 27.6448 23.4064C27.4118 24.3133 27.0624 25.1863 26.6053 26.0034C26.1503 26.8154 25.6124 27.5539 24.9918 28.2189C24.3723 28.8839 23.6705 29.4626 22.8865 29.9549C22.1025 30.4473 21.2596 30.8259 20.3578 31.0907C19.4559 31.3555 18.5033 31.492 17.5 31.5002C16.5334 31.5045 15.5711 31.3708 14.6423 31.1029C13.7547 30.8454 12.9081 30.4636 12.1275 29.9689C11.3537 29.4778 10.6422 28.8949 10.0083 28.2329C9.36999 27.5679 8.82699 26.8176 8.39475 26.0034C7.95506 25.1797 7.61099 24.3084 7.36925 23.4064C7.12089 22.479 6.99673 21.5228 7 20.5627ZM26.25 20.4664C26.25 19.7653 26.1176 19.0729 25.8528 18.3892C25.578 17.6893 25.2394 17.0162 24.8413 16.3784C24.4318 15.7216 23.9943 15.1021 23.5288 14.5199C23.0807 13.9582 22.6431 13.3882 22.2163 12.8102C21.4073 11.7439 20.7407 10.5768 20.2335 9.3382C19.729 8.09263 19.4111 6.77938 19.2903 5.44095C18.5885 5.61064 17.9093 5.86325 17.2673 6.19345C16.6753 6.49845 16.1354 6.89538 15.6678 7.36945C15.211 7.84013 14.8533 8.39773 14.616 9.0092C14.3698 9.6392 14.2415 10.3549 14.231 11.1564C14.231 11.8856 14.3273 12.5827 14.5198 13.2477C14.7123 13.9127 14.9718 14.5689 15.2985 15.2164C15.4175 15.4544 15.5044 15.6959 15.5593 15.9409C15.6129 16.1871 15.6444 16.4426 15.6538 16.7074C15.6538 17.0901 15.5896 17.4547 15.4613 17.8012C15.3353 18.1477 15.1486 18.4528 14.9013 18.7164C14.6573 18.9797 14.365 19.1936 14.0403 19.3464C13.6929 19.5034 13.3154 19.5828 12.9343 19.5792C12.4513 19.5792 12.0138 19.4695 11.6218 19.2502C11.2189 19.0179 10.8803 18.6889 10.6365 18.2929C10.4545 18.0106 10.2813 17.7329 10.1168 17.4599C9.9461 17.1754 9.77284 16.8925 9.597 16.6112C9.03565 17.8527 8.74683 19.2001 8.75 20.5627C8.75 21.3829 8.85034 22.1762 9.051 22.9427C9.25167 23.7069 9.534 24.4314 9.898 25.1162C10.2632 25.7987 10.71 26.4229 11.2385 26.9887C11.767 27.5534 12.355 28.041 13.0025 28.4517C13.6488 28.86 14.3506 29.1791 15.1078 29.4089C15.8626 29.6364 16.66 29.7502 17.5 29.7502C18.7125 29.7614 19.9125 29.5045 21.014 28.9977C22.0649 28.5092 23.0084 27.8168 23.7895 26.9607C24.5757 26.0969 25.1883 25.0898 25.5938 23.9944C26.0138 22.8744 26.2325 21.6984 26.25 20.4664Z" fill="#FBF8EF"/>
</svg>
