<svg width="30" height="30" viewBox="0 0 30 30" fill="none" xmlns="http://www.w3.org/2000/svg">
<path d="M26.25 14.9996H23.295C22.4725 14.9996 22.0612 14.9996 21.6975 15.1621C21.3337 15.3246 21.0575 15.6296 20.5075 16.2409L19.22 17.6709C18.77 18.1721 18.5437 18.4234 18.2575 18.4171C17.97 18.4109 17.7563 18.1509 17.3275 17.6296L12.9163 12.2846C12.5163 11.7996 12.3162 11.5571 12.045 11.5409C11.7737 11.5246 11.545 11.7409 11.09 12.1746L9.2125 13.9646C8.675 14.4759 8.4075 14.7309 8.0725 14.8646C7.7375 14.9996 7.36625 14.9996 6.625 14.9996H3.75" stroke="#FBF8EF" stroke-width="1.5" stroke-linecap="round"/>
<path d="M15 6.87478L14.3125 7.51228C14.4003 7.60694 14.5066 7.68246 14.6249 7.73411C14.7432 7.78575 14.8709 7.81241 15 7.81241C15.1291 7.81241 15.2568 7.78575 15.3751 7.73411C15.4934 7.68246 15.5997 7.60694 15.6875 7.51228L15 6.87478ZM11.795 23.4873C9.9825 22.0085 7.86625 20.0723 6.21125 17.951C4.5375 15.8073 3.4375 13.6035 3.4375 11.576H1.5625C1.5625 14.2335 2.975 16.851 4.7325 19.1048C6.50875 21.3798 8.745 23.4198 10.61 24.941L11.795 23.4873ZM3.4375 11.576C3.4375 8.16353 5.01 5.88103 7 5.05228C8.96625 4.23478 11.6912 4.69353 14.3125 7.51228L15.6875 6.23478C12.6838 3.00853 9.15875 2.12353 6.28 3.32103C3.4275 4.50853 1.5625 7.59978 1.5625 11.576H3.4375ZM19.39 24.941C21.2563 23.4198 23.49 21.3798 25.2675 19.1023C27.0263 16.8485 28.4375 14.2323 28.4375 11.5748H26.5625C26.5625 13.6023 25.4625 15.806 23.7888 17.9498C22.1338 20.071 20.0175 22.0085 18.205 23.4873L19.39 24.941ZM28.4375 11.5748C28.4375 7.59978 26.5725 4.50728 23.72 3.32103C20.8412 2.12353 17.3163 3.00853 14.3138 6.23353L15.6862 7.51228C18.3087 4.69353 21.0338 4.23478 22.9988 5.05228C24.99 5.87978 26.5625 8.16228 26.5625 11.5748H28.4375ZM10.61 24.941C12.1975 26.236 13.3 27.1873 15 27.1873V25.3123C14.0975 25.3123 13.5362 24.906 11.795 23.4873L10.61 24.941ZM18.205 23.486C16.4638 24.9073 15.9025 25.3123 15 25.3123V27.1873C16.6987 27.1873 17.8013 26.236 19.39 24.941L18.205 23.486Z" fill="#FBF8EF"/>
</svg>
