<svg width="30" height="30" viewBox="0 0 30 30" fill="none" xmlns="http://www.w3.org/2000/svg">
<path d="M6.75 12.5C7.46666 12.5 8.1575 12.6338 8.8225 12.9013C9.4875 13.1688 10.09 13.5521 10.63 14.0513L22.0862 25H23.75C24.1042 25 24.4012 24.88 24.6412 24.64C24.8812 24.4 25.0008 24.1033 25 23.75C25 23.5833 24.9842 23.4063 24.9525 23.2188C24.9208 23.0313 24.8117 22.8438 24.625 22.6563L18.9062 16.9375L16.6875 10.25L12.8612 11.1975C12.4537 11.3092 12.0833 11.2308 11.75 10.9625C11.4167 10.6942 11.25 10.355 11.25 9.94501V5.78126L10.375 5.34376L5.5875 11.7563C5.50166 11.8738 5.42666 11.9938 5.3625 12.1163C5.29916 12.2396 5.24916 12.3675 5.2125 12.5H6.75ZM6.75 13.75H5.12C5.16666 14.0083 5.245 14.2479 5.355 14.4688C5.465 14.6896 5.6225 14.8925 5.8275 15.0775L16 24.3438C16.2292 24.5729 16.4896 24.7396 16.7812 24.8438C17.0729 24.9479 17.375 25 17.6875 25H20.265L9.7775 14.95C9.375 14.5475 8.90958 14.2467 8.38125 14.0475C7.85208 13.8492 7.30833 13.75 6.75 13.75ZM17.6875 26.25C17.2225 26.25 16.7767 26.1675 16.35 26.0025C15.925 25.8375 15.5367 25.5946 15.185 25.2738L5.02875 16.055C4.31125 15.3883 3.90708 14.58 3.81625 13.63C3.72541 12.68 3.96958 11.8121 4.54875 11.0263L9.385 4.58876C9.5625 4.34959 9.79583 4.19209 10.085 4.11626C10.3742 4.04043 10.6533 4.07626 10.9225 4.22376L11.8225 4.66126C12.0517 4.77793 12.2217 4.93418 12.3325 5.13001C12.4442 5.32501 12.5 5.54209 12.5 5.78126V10.0175L16.375 9.01501C16.6958 8.92834 16.9958 8.96626 17.275 9.12876C17.5542 9.29126 17.7496 9.53043 17.8612 9.84626L19.9887 16.2363L25.5175 21.765C25.805 22.0533 25.9992 22.365 26.1 22.7C26.2 23.035 26.25 23.385 26.25 23.75C26.25 24.4392 26.0096 25.0283 25.5287 25.5175C25.0479 26.0058 24.455 26.25 23.75 26.25H17.6875Z" fill="#FBF8EF"/>
</svg>
