<svg width="27" height="27" viewBox="0 0 27 27" fill="none" xmlns="http://www.w3.org/2000/svg">
<path d="M21.0938 16.8751C21.0938 21.5352 18.1601 24.4688 13.5 24.4688C8.83986 24.4688 5.90625 21.5352 5.90625 16.8751C5.90625 11.8743 11.35 5.1232 13.0196 3.17044C13.079 3.10106 13.1527 3.04537 13.2357 3.00718C13.3187 2.96899 13.4089 2.94922 13.5003 2.94922C13.5916 2.94922 13.6819 2.96899 13.7648 3.00718C13.8478 3.04537 13.9215 3.10106 13.9809 3.17044C15.65 5.1232 21.0938 11.8743 21.0938 16.8751Z" stroke="#FBF8EF" stroke-width="1.2" stroke-miterlimit="10"/>
<path d="M18.1406 17.2969C18.1406 18.3039 17.7406 19.2696 17.0285 19.9817C16.3165 20.6937 15.3507 21.0938 14.3438 21.0938" stroke="#FBF8EF" stroke-width="1.2" stroke-linecap="round" stroke-linejoin="round"/>
</svg>
