<svg width="24" height="24" viewBox="0 0 24 24" fill="none" xmlns="http://www.w3.org/2000/svg">
<g clip-path="url(#clip0_82_31)">
<path fill-rule="evenodd" clip-rule="evenodd" d="M2.614 5.426C2.72754 5.15188 2.91982 4.91758 3.16653 4.75276C3.41324 4.58793 3.70329 4.49997 4 4.5H14C15.9891 4.5 17.8968 5.29018 19.3033 6.6967C20.7098 8.10322 21.5 10.0109 21.5 12C21.5 13.9891 20.7098 15.8968 19.3033 17.3033C17.8968 18.7098 15.9891 19.5 14 19.5H5C4.60217 19.5 4.22064 19.342 3.93934 19.0607C3.65803 18.7794 3.5 18.3978 3.5 18C3.5 17.6022 3.65803 17.2206 3.93934 16.9393C4.22064 16.658 4.60217 16.5 5 16.5H14C15.1935 16.5 16.3381 16.0259 17.182 15.182C18.0259 14.3381 18.5 13.1935 18.5 12C18.5 10.8065 18.0259 9.66193 17.182 8.81802C16.3381 7.97411 15.1935 7.5 14 7.5H7.621L8.561 8.44C8.8341 8.72303 8.98512 9.10201 8.98152 9.4953C8.97792 9.8886 8.81998 10.2647 8.54174 10.5427C8.2635 10.8207 7.8872 10.9783 7.4939 10.9815C7.1006 10.9847 6.72177 10.8334 6.439 10.56L2.939 7.06C2.72938 6.85026 2.58663 6.5831 2.52879 6.29227C2.47094 6.00144 2.50059 5.69999 2.614 5.426Z" fill="#FBF8EF"/>
</g>
<defs>
<clipPath id="clip0_82_31">
<rect width="24" height="24" fill="white"/>
</clipPath>
</defs>
</svg>
