<svg width="700" height="152" viewBox="0 0 700 152" fill="none" xmlns="http://www.w3.org/2000/svg">
<path d="M63.1638 115.447L36.7336 64.5349L29.8647 49.0981L26.7289 64.5349L16.5749 115.447H0L22.6972 6.35015H24.489L54.6524 65.277L63.6118 85.0183L72.5712 65.277L102.137 6.35015H103.78L127.373 115.447H110.947L99.8974 64.5349L96.6122 49.0981L90.6393 64.5349L64.0597 115.447H63.1638Z" fill="#FBF8EF"/>
<path d="M138.772 115.447V47.317H155.496V115.447H138.772Z" fill="#FBF8EF"/>
<path d="M170.649 115.447V47.317H186.477L186.626 59.7851C188.418 55.728 191.305 52.3636 195.287 49.6918C199.368 46.9211 204.246 45.5358 209.921 45.5358C217.287 45.5358 222.812 47.0696 226.496 50.1371C230.179 53.1057 232.618 57.3607 233.812 62.9022C235.107 68.4436 235.754 75.024 235.754 82.6434V115.447H219.627V83.0887C219.627 75.1724 218.83 69.1362 217.238 64.9802C215.744 60.8241 212.21 58.7461 206.636 58.7461C203.749 58.7461 200.762 59.6367 197.676 61.4178C194.59 63.199 192.002 65.7718 189.911 69.1362C187.821 72.5007 186.776 76.6567 186.776 81.6044V115.447H170.649Z" fill="#FBF8EF"/>
<path d="M282.407 116.931C276.334 116.931 270.66 115.496 265.384 112.626C260.207 109.757 256.026 105.65 252.841 100.307C249.655 94.9631 248.062 88.5806 248.062 81.1591C248.062 73.9355 249.406 67.7014 252.094 62.4569C254.881 57.1134 258.764 52.9573 263.741 49.9887C268.818 47.0201 274.841 45.5358 281.809 45.5358C285.791 45.5358 289.524 46.2285 293.009 47.6138C296.493 48.9002 299.479 50.6319 301.968 52.8089C304.457 54.9859 306.249 57.3608 307.344 59.9335L306.597 48.356V6.35015H322.425V115.447H307.045L306.746 103.424C305.751 105.601 304.059 107.728 301.669 109.806C299.38 111.884 296.592 113.616 293.307 115.001C290.022 116.288 286.389 116.931 282.407 116.931ZM285.095 103.424C288.778 103.424 292.113 102.583 295.099 100.9C298.185 99.1192 300.624 96.6453 302.416 93.4788C304.307 90.3123 305.253 86.5521 305.253 82.1981V81.1591C305.253 76.7062 304.307 72.847 302.416 69.5815C300.624 66.2171 298.185 63.6443 295.099 61.8631C292.113 59.983 288.778 59.043 285.095 59.043C278.425 59.043 273.398 61.1705 270.013 65.4255C266.728 69.6805 265.085 74.925 265.085 81.1591C265.085 87.4921 266.728 92.7862 270.013 97.0412C273.398 101.296 278.425 103.424 285.095 103.424Z" fill="#FBF8EF"/>
<path d="M366.674 116.931C362.493 116.931 358.362 116.436 354.28 115.447C350.199 114.358 346.565 113.072 343.38 111.587C340.194 110.004 337.805 108.421 336.212 106.838L344.126 92.7367C345.221 93.6273 346.914 94.8147 349.203 96.299C351.592 97.6844 354.33 98.9213 357.416 100.01C360.502 101.098 363.588 101.643 366.674 101.643C371.751 101.643 375.982 100.455 379.367 98.0802C382.851 95.7053 384.593 92.2419 384.593 87.69C384.593 83.9298 383.597 80.8128 381.606 78.3389C379.615 75.8651 376.977 73.6881 373.692 71.808C370.507 69.9279 367.022 68.1467 363.24 66.4645C359.556 64.6833 356.022 62.7042 352.638 60.5273C348.755 57.9545 345.371 54.5406 342.484 50.2856C339.597 46.0306 338.153 40.5386 338.153 33.8098C338.153 27.1799 339.647 21.7374 342.633 17.4824C345.719 13.2274 349.751 10.0609 354.728 7.98288C359.805 5.8059 365.33 4.71741 371.303 4.71741C376.081 4.71741 380.163 5.21217 383.548 6.20171C386.932 7.19125 389.769 8.3787 392.059 9.76405C394.349 11.1494 396.141 12.3863 397.435 13.4748L389.521 26.982C387.828 25.2008 385.29 23.5681 381.905 22.0838C378.52 20.5005 374.738 19.7089 370.556 19.7089C365.679 19.7089 361.796 20.8469 358.909 23.1228C356.022 25.2998 354.579 28.5652 354.579 32.9192C354.579 36.7784 355.873 40.0933 358.461 42.864C361.05 45.5358 364.335 48.0096 368.317 50.2856C372.398 52.4625 376.579 54.689 380.86 56.9649C385.14 59.2409 388.923 61.9126 392.208 64.9802C394.896 67.3551 397.186 70.3237 399.077 73.886C400.969 77.4483 401.914 81.456 401.914 85.9089C401.914 92.6377 400.322 98.3276 397.136 102.978C394.05 107.629 389.869 111.142 384.593 113.517C379.317 115.793 373.344 116.931 366.674 116.931Z" fill="#FBF8EF"/>
<path d="M413.971 151.515V47.317H429.501V59.9335C431.79 55.8764 434.976 52.4625 439.057 49.6918C443.238 46.9211 448.614 45.5358 455.184 45.5358C461.356 45.5358 466.881 46.8222 471.759 49.395C476.637 51.9678 480.47 55.8764 483.257 61.121C486.144 66.3655 487.588 72.9954 487.588 81.0107C487.588 88.3332 486.094 94.7158 483.108 100.158C480.121 105.502 476.139 109.658 471.162 112.626C466.185 115.496 460.61 116.931 454.438 116.931C448.564 116.931 443.537 115.892 439.356 113.814C435.175 111.736 431.89 108.866 429.501 105.205V151.515H413.971ZM450.705 103.424C457.474 103.424 462.501 101.296 465.786 97.0412C469.171 92.7862 470.863 87.5911 470.863 81.456C470.863 75.024 469.171 69.73 465.786 65.5739C462.501 61.4178 457.474 59.3398 450.705 59.3398C447.121 59.3398 443.786 60.1809 440.7 61.8631C437.614 63.5454 435.125 65.9697 433.234 69.1362C431.342 72.3028 430.397 76.1125 430.397 80.5654V81.6044C430.397 85.9584 431.342 89.8175 433.234 93.182C435.125 96.4474 437.614 98.9708 440.7 100.752C443.786 102.533 447.121 103.424 450.705 103.424Z" fill="#FBF8EF"/>
<path d="M532.138 116.931C526.066 116.931 520.392 115.496 515.116 112.626C509.939 109.757 505.758 105.65 502.572 100.307C499.387 94.9631 497.794 88.5806 497.794 81.1591C497.794 74.0344 499.138 67.8004 501.826 62.4569C504.613 57.1134 508.496 52.9573 513.473 49.9887C518.55 47.0201 524.573 45.5358 531.541 45.5358C535.722 45.5358 539.505 46.2779 542.89 47.7622C546.374 49.1476 549.261 50.8793 551.55 52.9573C553.94 54.9364 555.532 56.866 556.329 58.7461L556.628 47.317H572.008V115.447H556.777L556.478 103.424C555.483 105.601 553.79 107.728 551.401 109.806C549.112 111.884 546.324 113.616 543.039 115.001C539.754 116.288 536.12 116.931 532.138 116.931ZM534.826 103.572C538.51 103.572 541.844 102.731 544.831 101.049C547.917 99.2676 550.356 96.7938 552.148 93.6273C554.039 90.4607 554.985 86.7005 554.985 82.3465V81.3075C554.985 76.8546 554.039 72.9954 552.148 69.73C550.356 66.3655 547.917 63.7927 544.831 62.0116C541.844 60.1315 538.51 59.1914 534.826 59.1914C528.156 59.1914 523.129 61.3189 519.745 65.5739C516.459 69.8289 514.817 75.0734 514.817 81.3075C514.817 87.6406 516.459 92.9346 519.745 97.1896C523.129 101.445 528.156 103.572 534.826 103.572Z" fill="#FBF8EF"/>
<path d="M588.219 115.447V47.317H604.346V60.6757C605.938 56.2228 608.477 52.611 611.961 49.8403C615.545 46.9706 619.676 45.5358 624.355 45.5358C627.54 45.5358 629.73 45.8326 630.925 46.4264L628.685 62.6053C627.789 62.0116 625.848 61.7147 622.862 61.7147C620.373 61.7147 617.685 62.259 614.798 63.3474C611.911 64.4359 609.423 66.3655 607.332 69.1362C605.341 71.808 604.346 75.5682 604.346 80.4169V115.447H588.219Z" fill="#FBF8EF"/>
<path d="M638.777 115.447V6.35015H654.158V66.1676L653.859 77.7452L679.991 47.317H699.851L674.018 75.8156L700 115.447H681.036L667.149 93.182L663.266 85.612L654.307 95.26V115.447H638.777Z" fill="#FBF8EF"/>
<path d="M147.135 0L147.579 4.11302C148.615 13.7033 155.88 21.4462 165.386 23.0892C155.88 24.7322 148.615 32.4751 147.579 42.0653L147.135 46.1784L146.691 42.0653C145.655 32.4751 138.389 24.7322 128.884 23.0892C138.389 21.4462 145.655 13.7033 146.691 4.11301L147.135 0Z" fill="#C7FF10"/>
</svg>
