<svg width="26" height="16" viewBox="0 0 26 16" fill="none" xmlns="http://www.w3.org/2000/svg">
<g opacity="0.7">
<path d="M0.645006 1.31752C0.588314 1.19058 0.566194 1.05639 0.579957 0.922913C0.593721 0.789438 0.643088 0.659394 0.725131 0.540491C0.807174 0.421589 0.920223 0.316249 1.05757 0.230716C1.19493 0.145184 1.35379 0.0812001 1.52473 0.0425599C1.69568 0.00391975 1.87523 -0.00859045 2.05275 0.00577049C2.23026 0.0201314 2.40212 0.0610712 2.55814 0.126163C2.71416 0.191254 2.85116 0.279173 2.96102 0.384705C3.07088 0.490237 3.15136 0.611233 3.19769 0.740521C5.97976 7.72652 19.1779 7.72752 21.9627 0.744521C22.0126 0.618584 22.0951 0.50125 22.2055 0.399222C22.3159 0.297193 22.452 0.212466 22.6061 0.14988C22.7601 0.0872931 22.9291 0.0480721 23.1034 0.0344556C23.2777 0.0208391 23.4538 0.0330939 23.6218 0.0705207C23.7898 0.107947 23.9462 0.169814 24.0823 0.252586C24.2184 0.335358 24.3314 0.437415 24.4149 0.552931C24.4983 0.668447 24.5506 0.795159 24.5688 0.925833C24.587 1.05651 24.5706 1.18858 24.5207 1.31452C24.0358 2.5658 23.2127 3.72891 22.1027 4.73152L23.8032 6.00752C24.0461 6.19612 24.1805 6.44873 24.1775 6.71092C24.1745 6.97312 24.0342 7.22393 23.7869 7.40934C23.5397 7.59475 23.2051 7.69992 22.8555 7.7022C22.5058 7.70447 22.1689 7.60368 21.9173 7.42152L20.1689 6.11052C19.2254 6.64423 18.183 7.07174 17.0747 7.37952L17.5508 8.71452C17.6016 8.84257 17.6177 8.97695 17.5981 9.10974C17.5784 9.24252 17.5235 9.371 17.4366 9.48761C17.3496 9.60422 17.2324 9.70657 17.0918 9.78864C16.9512 9.87072 16.7901 9.93083 16.618 9.96545C16.446 10.0001 16.2664 10.0085 16.0899 9.99018C15.9134 9.97188 15.7436 9.92726 15.5904 9.85894C15.4373 9.79062 15.304 9.69999 15.1984 9.5924C15.0928 9.48481 15.017 9.36244 14.9755 9.23252L14.49 7.87552C13.227 8.01552 11.936 8.01552 10.673 7.87552L10.1875 9.23252C10.146 9.36244 10.0702 9.48481 9.96463 9.5924C9.85901 9.69999 9.7257 9.79062 9.57259 9.85894C9.41948 9.92726 9.24966 9.97188 9.07317 9.99018C8.89668 10.0085 8.71708 10.0001 8.54499 9.96545C8.3729 9.93083 8.21181 9.87072 8.07122 9.78864C7.93063 9.70657 7.81341 9.60422 7.72645 9.48761C7.6395 9.371 7.58459 9.24252 7.56497 9.10974C7.54534 8.97695 7.5614 8.84257 7.6122 8.71452L8.08832 7.37952C6.97995 7.07143 5.93756 6.64358 4.99416 6.10952L3.24703 7.42152C2.99695 7.60929 2.65764 7.71489 2.30372 7.71508C1.94981 7.71526 1.61029 7.61003 1.35986 7.42252C1.10943 7.23501 0.968601 6.98059 0.96835 6.71523C0.9681 6.44986 1.10845 6.19529 1.35853 6.00752L3.05898 4.73252C2.01337 3.79652 1.17848 2.65852 0.642338 1.31852L0.645006 1.31752Z" fill="#FBF8EF"/>
</g>
</svg>
